<?xml version="1.0" encoding="utf-8"?>
<!-- Generator: Adobe Illustrator 19.2.1, SVG Export Plug-In . SVG Version: 6.00 Build 0)  -->
<svg version="1.0" id="CAD" xmlns="http://www.w3.org/2000/svg" xmlns:xlink="http://www.w3.org/1999/xlink" x="0px" y="0px"
	 viewBox="0 0 52 52" enable-background="new 0 0 52 52" xml:space="preserve">
<path d="M26,4c12.1,0,22,9.9,22,22s-9.9,22-22,22S4,38.1,4,26S13.9,4,26,4 M26,2C12.7,2,2,12.7,2,26s10.7,24,24,24s24-10.7,24-24
	S39.3,2,26,2L26,2z"/>
<path d="M28.7,15.3c-0.2,0.4-0.5,0.6-0.9,0.6c-0.1,0-0.3,0-0.4-0.1L26,15.1l-1.4,0.6c-0.5,0.2-1.1,0-1.3-0.5c-0.2-0.5,0-1.1,0.5-1.3
	l1.8-0.8c0.3-0.1,0.6-0.1,0.8,0l1.8,0.8C28.7,14.2,29,14.8,28.7,15.3z M17.9,18.7c0.1,0,0.3,0,0.4-0.1l3.1-1.4
	c0.5-0.2,0.7-0.8,0.5-1.3c-0.2-0.5-0.8-0.7-1.3-0.5l-3.1,1.4C17,17,16.8,17.6,17,18.1C17.2,18.5,17.6,18.7,17.9,18.7z M15.7,18.7
	c-0.2-0.5-0.8-0.7-1.3-0.5l-1.8,0.8C12.2,19.3,12,19.6,12,20v2c0,0.6,0.4,1,1,1s1-0.4,1-1v-0.4l0.4,0.2c0.1,0.1,0.3,0.1,0.4,0.1
	c0.4,0,0.7-0.2,0.9-0.6c0.2-0.5,0-1-0.4-1.3C15.8,19.7,15.9,19.2,15.7,18.7z M17.5,23.2l3.1,1.4c0.1,0.1,0.3,0.1,0.4,0.1
	c0.4,0,0.7-0.2,0.9-0.6c0.2-0.5,0-1.1-0.5-1.3l-3.1-1.4c-0.5-0.2-1.1,0-1.3,0.5C16.8,22.4,17,23,17.5,23.2z M27.4,24.3L26,24.9
	l-1.4-0.6c-0.5-0.2-1.1,0-1.3,0.5c-0.2,0.5,0,1.1,0.5,1.3l1.2,0.6V28c0,0.6,0.4,1,1,1s1-0.4,1-1v-1.4l1.2-0.6
	c0.5-0.2,0.7-0.8,0.5-1.3C28.5,24.2,27.9,24,27.4,24.3z M33.6,21.4l-3.1,1.4C30,23,29.8,23.6,30,24.1c0.2,0.4,0.5,0.6,0.9,0.6
	c0.1,0,0.3,0,0.4-0.1l3.1-1.4c0.5-0.2,0.7-0.8,0.5-1.3C34.7,21.4,34.1,21.1,33.6,21.4z M39.4,19.1l-1.8-0.8c-0.5-0.2-1.1,0-1.3,0.5
	c-0.2,0.5,0,1,0.4,1.3c-0.4,0.3-0.6,0.8-0.4,1.3c0.2,0.4,0.5,0.6,0.9,0.6c0.1,0,0.3,0,0.4-0.1l0.4-0.2V22c0,0.6,0.4,1,1,1s1-0.4,1-1
	v-2C40,19.6,39.8,19.3,39.4,19.1z M34.5,16.8l-3.1-1.4c-0.5-0.2-1.1,0-1.3,0.5c-0.2,0.5,0,1.1,0.5,1.3l3.1,1.4
	c0.1,0.1,0.3,0.1,0.4,0.1c0.4,0,0.7-0.2,0.9-0.6C35.2,17.6,35,17,34.5,16.8z M13,29c0.6,0,1-0.4,1-1v-3c0-0.6-0.4-1-1-1s-1,0.4-1,1
	v3C12,28.6,12.4,29,13,29z M15.2,33.1L14,32.4V31c0-0.6-0.4-1-1-1s-1,0.4-1,1v2c0,0.4,0.2,0.7,0.5,0.9l1.8,0.9
	c0.2,0.1,0.3,0.1,0.5,0.1c0.4,0,0.7-0.2,0.9-0.5C15.9,33.9,15.7,33.3,15.2,33.1z M21.6,36.5l-3.2-1.7c-0.5-0.3-1.1-0.1-1.4,0.4
	c-0.3,0.5-0.1,1.1,0.4,1.4l3.2,1.7c0.2,0.1,0.3,0.1,0.5,0.1c0.4,0,0.7-0.2,0.9-0.5C22.2,37.3,22,36.7,21.6,36.5z M26,36
	c0.6,0,1-0.4,1-1v-3c0-0.6-0.4-1-1-1s-1,0.4-1,1v3C25,35.6,25.4,36,26,36z M27.4,38.3L27,38.4V38c0-0.6-0.4-1-1-1s-1,0.4-1,1v0.3
	l-0.3-0.2c-0.5-0.3-1.1-0.1-1.4,0.4c-0.3,0.5-0.1,1.1,0.4,1.4l1.8,0.9C25.7,41,25.8,41,26,41c0.1,0,0.3,0,0.4-0.1l0,0l1.8-0.8
	c0.5-0.2,0.7-0.8,0.5-1.3C28.5,38.2,27.9,38,27.4,38.3z M33.6,35.4l-3.1,1.4C30,37,29.8,37.6,30,38.1c0.2,0.4,0.5,0.6,0.9,0.6
	c0.1,0,0.3,0,0.4-0.1l3.1-1.4c0.5-0.2,0.7-0.8,0.5-1.3C34.7,35.4,34.1,35.1,33.6,35.4z M39,31c-0.6,0-1,0.4-1,1v1.4l-1.2,0.6
	c-0.5,0.2-0.7,0.8-0.5,1.3c0.2,0.4,0.5,0.6,0.9,0.6c0.1,0,0.3,0,0.4-0.1l1.8-0.8c0.4-0.2,0.6-0.5,0.6-0.9v-2C40,31.4,39.6,31,39,31z
	 M39,25c-0.6,0-1,0.4-1,1v3c0,0.6,0.4,1,1,1s1-0.4,1-1v-3C40,25.4,39.6,25,39,25z"/>
</svg>
