<?xml version="1.0" encoding="utf-8"?>
<!-- Generator: Adobe Illustrator 19.2.1, SVG Export Plug-In . SVG Version: 6.00 Build 0)  -->
<svg version="1.0" id="Factory_1" xmlns="http://www.w3.org/2000/svg" xmlns:xlink="http://www.w3.org/1999/xlink" x="0px" y="0px"
	 viewBox="0 0 52 52" enable-background="new 0 0 52 52" xml:space="preserve">
<path d="M38,13.9c-0.1-0.5-0.5-0.9-1-0.9h-5c-0.5,0-0.9,0.4-1,0.9l-1.2,12.8l-8.3-5.5c-0.3-0.2-0.7-0.2-1,0C20.2,21.3,20,21.6,20,22
	v4.1l-7.4-5c-0.3-0.2-0.7-0.2-1,0C11.2,21.3,11,21.6,11,22v14c0,0.6,0.4,1,1,1h28c0.3,0,0.6-0.1,0.8-0.3c0.2-0.2,0.3-0.5,0.2-0.8
	L38,13.9z M29.4,28.8c0.1,0,0.1,0.1,0.2,0.1L29.1,35H22V23.9L29.4,28.8z M20,28.5V35h-7V23.9L20,28.5z M31.1,35l1.8-20h3.2l2.7,20
	H31.1z"/>
<path d="M26,4c12.1,0,22,9.9,22,22s-9.9,22-22,22S4,38.1,4,26S13.9,4,26,4 M26,2C12.7,2,2,12.7,2,26s10.7,24,24,24s24-10.7,24-24
	S39.3,2,26,2L26,2z"/>
</svg>
