<?xml version="1.0" encoding="utf-8"?>
<!-- Generator: Adobe Illustrator 19.2.1, SVG Export Plug-In . SVG Version: 6.00 Build 0)  -->
<svg version="1.0" id="Play" xmlns="http://www.w3.org/2000/svg" xmlns:xlink="http://www.w3.org/1999/xlink" x="0px" y="0px"
	 viewBox="0 0 52 52" enable-background="new 0 0 52 52" xml:space="preserve">
<path d="M17,39c-0.2,0-0.4,0-0.5-0.1C16.2,38.7,16,38.4,16,38V14c0-0.4,0.2-0.7,0.5-0.9c0.3-0.2,0.7-0.2,1,0l22,12
	c0.3,0.2,0.5,0.5,0.5,0.9s-0.2,0.7-0.5,0.9l-22,12C17.3,39,17.2,39,17,39z M18,15.7v20.6L36.9,26L18,15.7z"/>
<path d="M26,4c12.1,0,22,9.9,22,22s-9.9,22-22,22S4,38.1,4,26S13.9,4,26,4 M26,2C12.7,2,2,12.7,2,26s10.7,24,24,24s24-10.7,24-24
	S39.3,2,26,2L26,2z"/>
</svg>
