<?xml version="1.0" standalone="no"?>
<!DOCTYPE svg PUBLIC "-//W3C//DTD SVG 20010904//EN"
 "http://www.w3.org/TR/2001/REC-SVG-20010904/DTD/svg10.dtd">
<svg version="1.0" xmlns="http://www.w3.org/2000/svg"
 width="16.000000pt" height="16.000000pt" viewBox="0 0 16.000000 16.000000"
 preserveAspectRatio="xMidYMid meet">
<metadata>
Created by potrace 1.11, written by Peter Selinger 2001-2013
</metadata>
<g transform="translate(0.000000,16.000000) scale(0.002286,-0.002286)"
fill="#000000" stroke="none">
<path d="M0 3500 l0 -3500 3500 0 3500 0 0 3500 0 3500 -3500 0 -3500 0 0
-3500z m2540 2480 c407 -25 780 -98 1086 -213 858 -322 1349 -951 1476 -1892
16 -115 21 -205 21 -385 0 -322 -29 -527 -110 -782 -273 -864 -982 -1431
-2008 -1608 -297 -51 -335 -52 -1277 -57 l-888 -4 0 2445 0 2445 33 5 c237 39
1309 68 1667 46z m3485 -3644 c117 -41 179 -80 266 -166 145 -144 207 -303
196 -504 -17 -309 -228 -549 -537 -612 -138 -28 -266 -10 -405 57 -243 116
-387 359 -372 629 10 171 68 301 192 426 64 65 98 90 167 124 47 23 110 49
140 56 75 19 287 13 353 -10z"/>
<path d="M2155 5004 c-33 -2 -75 -6 -92 -9 l-33 -6 0 -1494 0 -1495 238 0
c348 1 485 18 688 85 322 107 587 321 738 596 239 435 248 1117 21 1580 -68
138 -132 227 -250 345 -202 204 -437 325 -735 379 -92 17 -425 28 -575 19z"/>
</g>
</svg>
