<svg id="Artwork" xmlns="http://www.w3.org/2000/svg" viewBox="0 0 283.46 53"><style>.cls-1{fill:#86bc25;}</style><title>DEL_PRI_RGB</title><path class="cls-1" d="M320.39,98.06a7.51,7.51,0,1,1,7.51,7.51,7.52,7.52,0,0,1-7.51-7.51" transform="translate(-51.95 -52.57)"/><path d="M95,77.67q0,13-7,20t-19.66,7H52v-52H69.51q12.21,0,18.86,6.4T95,77.67m-14.23.5Q80.79,71,78,67.57t-8.38-3.45h-4v29.1h3.05q6.25,0,9.16-3.71t2.92-11.35" transform="translate(-51.95 -52.57)"/><rect x="88.52" width="13.06" height="52.17"/><path d="M196.39,85.28q0,9.5-5,14.82t-14,5.32q-8.62,0-13.71-5.44t-5.1-14.7q0-9.48,5-14.73t14-5.25a19.58,19.58,0,0,1,9.85,2.43,16.4,16.4,0,0,1,6.6,7,22.91,22.91,0,0,1,2.32,10.58m-24.51,0a17.57,17.57,0,0,0,1.3,7.61,4.51,4.51,0,0,0,4.37,2.62,4.39,4.39,0,0,0,4.29-2.62,18.19,18.19,0,0,0,1.25-7.61,17.26,17.26,0,0,0-1.27-7.49,5,5,0,0,0-8.65,0q-1.3,2.51-1.3,7.51" transform="translate(-51.95 -52.57)"/><rect x="149.62" y="13.42" width="13.06" height="38.75"/><rect x="149.62" width="13.06" height="8.73"/><path d="M241.09,94.86a19,19,0,0,0,6.31-1.34v9.75a25.48,25.48,0,0,1-5,1.66,27.68,27.68,0,0,1-5.6.5q-6.58,0-9.49-3.3T224.4,92V76h-4.57V66h4.57V56.1l13.16-2.29V66h8.33V76h-8.33V91.1q0,3.76,3.54,3.76" transform="translate(-51.95 -52.57)"/><path d="M271.32,94.86a19.05,19.05,0,0,0,6.31-1.34v9.75a25.42,25.42,0,0,1-5,1.66,27.68,27.68,0,0,1-5.6.5q-6.58,0-9.48-3.3T254.62,92V76H250V66h4.58V56l13.16-2.14V66h8.34V76h-8.34V91.1q0,3.76,3.54,3.76" transform="translate(-51.95 -52.57)"/><path d="M312.53,69.88q-4.66-4.57-13.21-4.57-9,0-13.83,5.25t-4.84,15.06q0,9.51,5.23,14.66t14.68,5.15a42.89,42.89,0,0,0,7.81-.62,22.63,22.63,0,0,0,6.31-2.2l-2-8.73a25.78,25.78,0,0,1-10.55,2,8.94,8.94,0,0,1-6-1.85,6.71,6.71,0,0,1-2.32-5.1h23.34V83q0-8.59-4.66-13.15M294.11,80.56a7.08,7.08,0,0,1,1.82-4.67,5.37,5.37,0,0,1,3.86-1.49,5.05,5.05,0,0,1,4,1.68,6.72,6.72,0,0,1,1.55,4.48H294.11Z" transform="translate(-51.95 -52.57)"/><path d="M130.76,69.88q-4.66-4.57-13.21-4.57-9,0-13.83,5.25T98.88,85.62q0,9.51,5.23,14.66t14.68,5.15a42.91,42.91,0,0,0,7.81-.62,22.64,22.64,0,0,0,6.31-2.2l-2-8.73a25.77,25.77,0,0,1-10.55,2,9,9,0,0,1-6-1.85,6.7,6.7,0,0,1-2.32-5.1h23.34V83q0-8.59-4.66-13.15M112.34,80.56a7.08,7.08,0,0,1,1.82-4.67A5.36,5.36,0,0,1,118,74.41a5.06,5.06,0,0,1,4,1.68,6.75,6.75,0,0,1,1.55,4.48H112.34Z" transform="translate(-51.95 -52.57)"/></svg>
